<svg width="28" height="26" viewBox="0 0 28 26" fill="none" xmlns="http://www.w3.org/2000/svg">
<path d="M27.2599 0.686575C26.9724 0.448274 26.6258 0.292212 26.2568 0.234936C25.8878 0.17766 25.5102 0.221304 25.1639 0.361241L1.27462 10.0052C0.888576 10.1639 0.559915 10.4362 0.332263 10.786C0.104611 11.1358 -0.0112639 11.5466 1.99004e-05 11.9638C0.0113037 12.381 0.149213 12.7849 0.39544 13.1219C0.641667 13.4589 0.984565 13.713 1.37861 13.8506L6.53328 15.6399L9.32661 24.8746C9.33195 24.8932 9.34928 24.9052 9.35728 24.9226C9.38606 24.9963 9.42809 25.064 9.48128 25.1226C9.5621 25.2128 9.66643 25.2789 9.78261 25.3132C9.79595 25.3186 9.80528 25.3306 9.81862 25.3332H9.82661L9.83061 25.3346C9.93377 25.3568 10.041 25.3513 10.1413 25.3186C10.1519 25.3159 10.1626 25.3159 10.1746 25.3119C10.2709 25.2781 10.3581 25.2224 10.4293 25.1492C10.4373 25.1399 10.4506 25.1386 10.4586 25.1306L14.4759 20.6959L20.3386 25.2359C20.6946 25.5146 21.1333 25.6652 21.5853 25.6652C22.5639 25.6652 23.4079 24.9799 23.6093 24.0239L27.9586 2.66657C28.0324 2.30401 28.0064 1.92821 27.8833 1.57927C27.7603 1.23034 27.5448 0.921339 27.2599 0.685241V0.686575ZM10.7839 17.3932L9.84128 21.9759L7.87461 15.4719L17.6279 10.3919L10.9653 17.0559C10.873 17.1481 10.8099 17.2654 10.7839 17.3932V17.3932ZM22.3026 23.7559C22.2776 23.8768 22.2219 23.9893 22.1409 24.0824C22.0598 24.1756 21.9562 24.2463 21.8399 24.2879C21.7265 24.3316 21.6037 24.3449 21.4835 24.3267C21.3633 24.3085 21.25 24.2593 21.1546 24.1839L14.8039 19.2652C14.6712 19.1628 14.5047 19.1141 14.3376 19.1289C14.1706 19.1437 14.0152 19.221 13.9026 19.3452L11.1066 22.4266L12.0479 17.8572L21.6333 8.27057C21.7455 8.15795 21.8138 8.00892 21.8259 7.85036C21.8379 7.6918 21.7928 7.53417 21.6989 7.40591C21.6049 7.27765 21.4681 7.1872 21.3133 7.15089C21.1585 7.11458 20.9958 7.13481 20.8546 7.20791L7.03728 14.4052L1.81462 12.5892C1.67614 12.5435 1.55537 12.4558 1.4691 12.3382C1.38283 12.2206 1.33535 12.0791 1.33328 11.9332C1.32664 11.7861 1.36594 11.6406 1.44574 11.5168C1.52554 11.3931 1.64188 11.2972 1.77862 11.2426L25.6639 1.59857C25.7863 1.54657 25.9208 1.52975 26.0523 1.55001C26.1837 1.57027 26.3069 1.6268 26.4079 1.71324C26.5084 1.79456 26.5843 1.90221 26.6272 2.02417C26.6701 2.14613 26.6782 2.27761 26.6506 2.40391L22.3026 23.7572V23.7559Z" fill="black"/>
</svg>
