<svg width="23" height="19" viewBox="0 0 23 19" fill="none" xmlns="http://www.w3.org/2000/svg">
<path fill-rule="evenodd" clip-rule="evenodd" d="M11.3616 7.12436L12.6293 4.77557C12.9442 4.19396 13.4901 3.35764 14.263 2.68149C15.0231 2.01585 15.9335 1.5629 17.0339 1.5629C19.4106 1.5629 21.2881 3.30381 21.2881 5.39658C21.2881 6.9865 20.5025 8.10903 18.6392 9.82106C18.1613 10.2596 17.6167 10.7335 17.014 11.2561C15.4428 12.6215 13.4887 14.3204 11.3616 16.5917C9.23447 14.3204 7.28036 12.6215 5.70913 11.2561C5.10645 10.7335 4.56049 10.2583 4.08401 9.82106C2.22066 8.10903 1.43504 6.9865 1.43504 5.39658C1.43504 3.30381 3.31258 1.5629 5.68928 1.5629C6.7897 1.5629 7.70011 2.01585 8.4602 2.68149C9.23305 3.35764 9.77901 4.19396 10.0938 4.77557L11.3616 7.12436ZM11.9175 18.0109C11.8492 18.0858 11.7641 18.146 11.668 18.1873C11.572 18.2286 11.4674 18.25 11.3616 18.25C11.2557 18.25 11.1511 18.2286 11.0551 18.1873C10.9591 18.146 10.874 18.0858 10.8057 18.0109C8.53536 15.5138 6.48056 13.7283 4.7888 12.2591C1.86047 9.7134 0.0169678 8.11297 0.0169678 5.39658C0.0169678 2.55414 2.55533 0.25 5.68928 0.25C7.9582 0.25 9.54503 1.62855 10.5164 2.88631C10.8851 3.36552 11.1659 3.82635 11.3616 4.18871C11.6069 3.73519 11.8895 3.29978 12.2068 2.88631C13.1781 1.62723 14.765 0.25 17.0339 0.25C20.1678 0.25 22.7062 2.55414 22.7062 5.39658C22.7062 8.11297 20.8627 9.7134 17.9344 12.2591C16.2426 13.7296 14.1878 15.5151 11.9175 18.0096V18.0109Z" fill="currentColor"/>
</svg>
