<svg xmlns="http://www.w3.org/2000/svg" xmlns:xlink="http://www.w3.org/1999/xlink"><defs>
<clipPath id="clip0_1369_1042">
<rect width="18" height="20" fill="white" transform="translate(0.297852)"/>
</clipPath>

<clipPath id="clip0_1369_1040">
<rect width="23" height="22" fill="white" transform="translate(0.297852)"/>
</clipPath>
</defs><symbol id="icon-arrow-filter" viewBox="0 0 10 5"><g fill="none">
<path d="M5 5L0.669872 0.5L9.33013 0.5L5 5Z" fill="currentColor"/>
</g></symbol><symbol id="icon-arrow" viewBox="0 0 11 14"><g fill="none">
<path d="M10.7512 7L0.305502 13.0622V0.937822L10.7512 7Z" fill="currentColor"/>
</g></symbol><symbol id="icon-bicycle" viewBox="0 0 26 25"><g fill="none">
<path d="M19.2432 21.875C18.3547 21.875 17.4862 21.6115 16.7474 21.1179C16.0087 20.6243 15.4329 19.9227 15.0929 19.1019C14.7529 18.2811 14.664 17.3778 14.8373 16.5064C15.0106 15.635 15.4385 14.8346 16.0667 14.2064C16.695 13.5781 17.4954 13.1503 18.3668 12.9769C19.2382 12.8036 20.1414 12.8926 20.9623 13.2326C21.7831 13.5726 22.4847 14.1484 22.9783 14.8871C23.4719 15.6258 23.7354 16.4943 23.7354 17.3828C23.7341 18.5738 23.2604 19.7157 22.4182 20.5578C21.576 21.4 20.4342 21.8737 19.2432 21.875ZM19.2432 14.4531C18.6637 14.4531 18.0973 14.6249 17.6155 14.9469C17.1337 15.2688 16.7582 15.7263 16.5365 16.2617C16.3147 16.797 16.2567 17.3861 16.3698 17.9544C16.4828 18.5227 16.7618 19.0447 17.1716 19.4544C17.5813 19.8641 18.1033 20.1432 18.6716 20.2562C19.2399 20.3692 19.829 20.3112 20.3643 20.0895C20.8996 19.8678 21.3572 19.4922 21.6791 19.0105C22.001 18.5287 22.1729 17.9623 22.1729 17.3828C22.1719 16.6061 21.863 15.8614 21.3138 15.3122C20.7645 14.763 20.0199 14.454 19.2432 14.4531Z" fill="currentColor"/>
<path d="M6.35254 21.875C5.46407 21.875 4.59555 21.6115 3.85682 21.1179C3.11808 20.6243 2.5423 19.9227 2.2023 19.1019C1.8623 18.2811 1.77334 17.3778 1.94667 16.5064C2.12 15.635 2.54784 14.8346 3.17608 14.2064C3.80433 13.5781 4.60476 13.1503 5.47616 12.9769C6.34756 12.8036 7.25079 12.8926 8.07163 13.2326C8.89247 13.5726 9.59405 14.1484 10.0877 14.8871C10.5813 15.6258 10.8447 16.4943 10.8447 17.3828C10.8434 18.5738 10.3697 19.7157 9.52757 20.5578C8.6854 21.4 7.54355 21.8737 6.35254 21.875ZM6.35254 14.4531C5.7731 14.4531 5.20668 14.6249 4.72489 14.9469C4.24311 15.2688 3.8676 15.7263 3.64586 16.2617C3.42412 16.797 3.3661 17.3861 3.47915 17.9544C3.59219 18.5227 3.87122 19.0447 4.28094 19.4544C4.69066 19.8641 5.21268 20.1432 5.78099 20.2562C6.34929 20.3692 6.93835 20.3112 7.47368 20.0895C8.00901 19.8678 8.46657 19.4922 8.78849 19.0105C9.11041 18.5287 9.28223 17.9623 9.28223 17.3828C9.28132 16.6061 8.97237 15.8614 8.42314 15.3122C7.87392 14.763 7.12926 14.454 6.35254 14.4531Z" fill="currentColor"/>
<path d="M15.9229 6.25005C16.1287 6.25076 16.3326 6.21067 16.5228 6.1321C16.713 6.05352 16.8857 5.93802 17.031 5.79227C17.1763 5.64651 17.2913 5.47341 17.3693 5.28295C17.4473 5.09249 17.4867 4.88847 17.4854 4.68267C17.4876 4.4779 17.4491 4.27473 17.3719 4.08504C17.2947 3.89535 17.1805 3.72295 17.036 3.57792C16.8914 3.43289 16.7193 3.31814 16.5299 3.24038C16.3404 3.16262 16.1374 3.12341 15.9326 3.12505C15.7274 3.12441 15.5241 3.16419 15.3343 3.24212C15.1445 3.32005 14.9719 3.4346 14.8263 3.57924C14.6808 3.72388 14.5652 3.89577 14.486 4.0851C14.4069 4.27442 14.3659 4.47748 14.3652 4.68267C14.3646 4.88786 14.4044 5.09116 14.4823 5.28098C14.5602 5.4708 14.6748 5.64341 14.8194 5.78895C14.9641 5.9345 15.136 6.05013 15.3253 6.12924C15.5146 6.20836 15.7177 6.24941 15.9229 6.25005Z" fill="currentColor"/>
<path d="M18.2446 9.37504H16.1079C16.0729 9.37505 16.0385 9.36563 16.0083 9.34776C15.9781 9.32989 15.9533 9.30423 15.9365 9.27348L14.3867 6.43315C14.2775 6.22207 14.1202 6.03967 13.9274 5.90071C13.7346 5.76175 13.5118 5.67014 13.277 5.6333C13.0422 5.59645 12.8021 5.6154 12.576 5.68862C12.3499 5.76183 12.1442 5.88725 11.9756 6.05473L8.56445 9.49223C8.27788 9.78473 8.11521 10.1765 8.11035 10.586C8.11035 11.4356 8.72559 11.7383 9.01367 11.9092C10.4053 12.711 11.3853 13.2974 11.9229 13.6231C11.9514 13.6405 11.9751 13.6649 11.9915 13.6941C12.0079 13.7233 12.0165 13.7561 12.0166 13.7896V17.1646C12.0166 17.585 12.3398 17.9458 12.7603 17.9668C12.8658 17.9719 12.9713 17.9555 13.0703 17.9187C13.1694 17.8818 13.2599 17.8253 13.3364 17.7524C13.413 17.6796 13.474 17.5919 13.5157 17.4949C13.5574 17.3978 13.579 17.2932 13.5791 17.1875V12.9883C13.5792 12.8643 13.5497 12.742 13.4932 12.6317C13.4366 12.5213 13.3546 12.426 13.2539 12.3536L11.4473 11.0542C11.4246 11.038 11.4056 11.0171 11.3917 10.993C11.3778 10.9688 11.3692 10.942 11.3665 10.9142C11.3638 10.8864 11.3671 10.8584 11.3762 10.8321C11.3852 10.8057 11.3998 10.7815 11.4189 10.7613L13.4697 8.57426C13.4908 8.55176 13.5168 8.53455 13.5457 8.52404C13.5747 8.51352 13.6057 8.51001 13.6363 8.51377C13.6668 8.51753 13.6961 8.52846 13.7216 8.54568C13.7472 8.5629 13.7683 8.58591 13.7832 8.61284L14.8486 10.5357C14.9163 10.6576 15.0155 10.7591 15.1357 10.8298C15.2559 10.9005 15.3928 10.9377 15.5322 10.9375H18.2666C18.3724 10.9377 18.4772 10.9163 18.5745 10.8747C18.6718 10.8331 18.7597 10.7722 18.8328 10.6956C18.9058 10.619 18.9626 10.5284 18.9995 10.4292C19.0365 10.3301 19.0529 10.2244 19.0479 10.1187C19.0273 9.69829 18.665 9.37504 18.2446 9.37504Z" fill="currentColor"/>
</g></symbol><symbol id="icon-burger" viewBox="0 0 25 11"><g fill="none">
<rect width="25" height="3" rx="1.5" fill="white"/>
<rect y="8" width="25" height="3" rx="1.5" fill="white"/>
</g></symbol><symbol id="icon-bus" viewBox="0 0 19 20"><g fill="none">
<g clip-path="url(#clip0_1369_1042)">
<path d="M4.79891 13.5714C4.79891 13.1771 4.65248 12.8404 4.35964 12.5614C4.06679 12.2824 3.71342 12.1429 3.29953 12.1429C2.88564 12.1429 2.53227 12.2824 2.23943 12.5614C1.94658 12.8404 1.80016 13.1771 1.80016 13.5714C1.80016 13.9658 1.94658 14.3025 2.23943 14.5815C2.53227 14.8605 2.88564 15 3.29953 15C3.71342 15 4.06679 14.8605 4.35964 14.5815C4.65248 14.3025 4.79891 13.9658 4.79891 13.5714ZM16.7939 13.5714C16.7939 13.1771 16.6475 12.8404 16.3546 12.5614C16.0618 12.2824 15.7084 12.1429 15.2945 12.1429C14.8806 12.1429 14.5273 12.2824 14.2344 12.5614C13.9416 12.8404 13.7952 13.1771 13.7952 13.5714C13.7952 13.9658 13.9416 14.3025 14.2344 14.5815C14.5273 14.8605 14.8806 15 15.2945 15C15.7084 15 16.0618 14.8605 16.3546 14.5815C16.6475 14.3025 16.7939 13.9658 16.7939 13.5714ZM16.2551 9.15179L15.4117 4.86607C15.3726 4.69494 15.2848 4.55543 15.1481 4.44754C15.0114 4.33966 14.8533 4.28571 14.6737 4.28571H3.92037C3.74075 4.28571 3.58262 4.33966 3.44596 4.44754C3.30929 4.55543 3.22144 4.69494 3.18239 4.86607L2.33899 9.15179C2.29995 9.375 2.35461 9.57217 2.50299 9.7433C2.65136 9.91443 2.84269 10 3.07697 10H15.5171C15.7514 10 15.9427 9.91443 16.0911 9.7433C16.2395 9.57217 16.2941 9.375 16.2551 9.15179ZM13.6077 2.32143C13.6077 2.17262 13.5531 2.04613 13.4437 1.94196C13.3344 1.8378 13.2017 1.78571 13.0455 1.78571H5.54859C5.39241 1.78571 5.25965 1.8378 5.15032 1.94196C5.04099 2.04613 4.98633 2.17262 4.98633 2.32143C4.98633 2.47024 5.04099 2.59673 5.15032 2.70089C5.25965 2.80506 5.39241 2.85714 5.54859 2.85714H13.0455C13.2017 2.85714 13.3344 2.80506 13.4437 2.70089C13.5531 2.59673 13.6077 2.47024 13.6077 2.32143ZM18.2933 10.4129V17.1429H16.7939V18.5714C16.7939 18.9658 16.6475 19.3025 16.3546 19.5815C16.0618 19.8605 15.7084 20 15.2945 20C14.8806 20 14.5273 19.8605 14.2344 19.5815C13.9416 19.3025 13.7952 18.9658 13.7952 18.5714V17.1429H4.79891V18.5714C4.79891 18.9658 4.65248 19.3025 4.35964 19.5815C4.06679 19.8605 3.71342 20 3.29953 20C2.88564 20 2.53227 19.8605 2.23943 19.5815C1.94658 19.3025 1.80016 18.9658 1.80016 18.5714V17.1429H0.300781V10.4129C0.300781 9.57961 0.398397 8.75 0.593628 7.92411L1.80016 2.85714C1.87044 2.27679 2.25114 1.76711 2.94226 1.32812C3.63338 0.889137 4.53144 0.558036 5.63645 0.334821C6.74146 0.111607 7.96165 0 9.29703 0C10.6324 0 11.8526 0.111607 12.9576 0.334821C14.0626 0.558036 14.9607 0.889137 15.6518 1.32812C16.3429 1.76711 16.7236 2.27679 16.7939 2.85714L18.0239 7.92411C18.2035 8.68304 18.2933 9.51265 18.2933 10.4129Z" fill="currentColor"/>
</g>

</g></symbol><symbol id="icon-call-header" viewBox="0 0 18 18"><g fill="none">
<path d="M8.97412 7.42388C8.97412 7.61288 9.12775 7.76138 9.3155 7.76138C9.70468 7.76138 10.0187 8.07526 10.0187 8.45663C10.0187 8.64225 10.1724 8.79413 10.3601 8.79413C10.5479 8.79413 10.7015 8.64225 10.7015 8.45663C10.7015 7.70064 10.0802 7.08638 9.3155 7.08638C9.12775 7.08638 8.97412 7.23826 8.97412 7.42388ZM14.5318 8.79413C14.723 8.79413 14.8732 8.64225 14.8732 8.45663C14.8732 5.42589 12.3811 2.96214 9.3155 2.96214C9.12775 2.96214 8.97412 3.114 8.97412 3.29964C8.97412 3.48526 9.12775 3.63714 9.3155 3.63714C12.0056 3.63714 14.1904 5.80051 14.1904 8.45663C14.1904 8.64225 14.344 8.79413 14.5318 8.79413Z" fill="#161C35"/>
<path d="M12.1047 8.45663C12.1047 8.64225 12.2583 8.79413 12.446 8.79413C12.6338 8.79413 12.7874 8.64225 12.7874 8.45663C12.7874 6.56326 11.2307 5.02426 9.3156 5.02426C9.12785 5.02426 8.97422 5.17614 8.97422 5.36176C8.97422 5.55076 9.12785 5.69926 9.3156 5.69926C10.8552 5.69926 12.1047 6.93788 12.1047 8.45663ZM9.3156 0.900002C9.12785 0.900002 8.97422 1.05188 8.97422 1.2375C8.97422 1.42314 9.12785 1.575 9.3156 1.575C13.1561 1.575 16.2797 4.66314 16.2797 8.45663C16.2797 8.64225 16.43 8.79413 16.6211 8.79413C16.8089 8.79413 16.9625 8.64225 16.9625 8.45663C16.9625 4.28852 13.5316 0.900002 9.3156 0.900002ZM12.6509 12.0139L12.2037 12.2535C11.4492 12.6619 10.8621 13.7813 9.93111 12.9375L7.50006 10.5L5.39999 8.45663C4.3449 7.1235 5.5263 6.80625 5.93936 6.05701L6.18174 5.61827C6.45484 5.11875 6.55383 4.55851 6.47191 3.99825C6.3934 3.43801 6.13736 2.92838 5.7277 2.52338C5.2293 2.03064 4.56703 1.76064 3.86037 1.76064C3.15371 1.76064 2.48802 2.03064 1.9896 2.52338L1.81551 2.69888C0.893782 3.61014 0.787955 5.1795 1.51509 7.1235C2.20125 8.97975 3.58385 10.9913 5.39999 12.7868C8.16857 15.5239 11.2512 17.1 13.4634 17.1C14.3373 17.1 15.0781 16.8536 15.6038 16.3339L15.7813 16.1584C16.2763 15.669 16.5528 15.0143 16.5563 14.3089C16.5528 13.6204 16.2695 12.9454 15.7813 12.4628C14.9586 11.6494 13.6716 11.4671 12.6509 12.0139Z" fill="#161C35"/>
</g></symbol><symbol id="icon-call" viewBox="0 0 32 30"><g fill="none">
<path fill-rule="evenodd" clip-rule="evenodd" d="M15.9999 0.172363C10.407 0.172363 4.80065 1.1177 2.76644 3.00191C1.07869 4.56509 0.516077 7.32664 0.326429 9.07513C0.326429 9.07513 0.300293 9.24791 0.300293 9.32224C0.300293 10.0079 0.888893 10.5578 1.60853 10.5578C1.69357 10.5578 4.84004 10.3168 6.73702 10.1686C6.78267 10.1623 6.82868 10.1562 6.87433 10.1439C7.58086 10.1255 8.1501 9.58166 8.1501 8.90832L8.15643 6.47406C8.15643 5.72035 8.80429 5.11481 9.60241 5.11481H22.3973C23.1956 5.11481 23.8435 5.72028 23.8435 6.47406L23.8499 8.90832C23.8499 9.58166 24.4191 10.1255 25.1255 10.1439C25.1709 10.1563 25.2169 10.1623 25.2631 10.1686C27.1602 10.3167 30.3066 10.5578 30.3913 10.5578C31.1107 10.5578 31.6997 10.0079 31.6997 9.32224C31.6997 9.24791 31.6736 9.07513 31.6736 9.07513C31.4838 7.32664 30.9218 4.56516 29.234 3.00191C27.1991 1.1177 21.5928 0.172363 15.9999 0.172363ZM15.9999 16.2355C14.5542 16.2355 13.3833 17.3413 13.3833 18.7067C13.3833 20.0721 14.5542 21.1778 15.9999 21.1778C17.4456 21.1778 18.6165 20.0721 18.6165 18.7067C18.6165 17.3413 17.4456 16.2355 15.9999 16.2355ZM14.0375 10.6751V9.13061C14.0375 8.2781 13.3047 7.58613 12.4021 7.58613C11.4995 7.58613 10.7668 8.27817 10.7668 9.13061V10.6751L1.94189 19.5779C1.33378 20.1402 0.954269 20.9245 0.954269 21.7897V24.2671C0.954269 25.6325 2.12528 26.7383 3.57089 26.7383H4.22509V28.2829C4.22509 29.1354 4.9579 29.8273 5.8605 29.8273C6.76309 29.8273 7.49583 29.1354 7.49583 28.2829V26.7383H24.504V28.2829C24.504 29.1354 25.2365 29.8273 26.1394 29.8273C27.042 29.8273 27.7746 29.1354 27.7746 28.2829V26.7383H28.4288C29.8745 26.7383 31.0454 25.6325 31.0454 24.2671V21.7897C31.0454 20.9245 30.6659 20.1401 30.0578 19.5779L21.2332 10.6751V9.13061C21.2332 8.2781 20.5003 7.58613 19.5977 7.58613C18.6951 7.58613 17.9625 8.27817 17.9625 9.13061V10.6751H14.0375ZM15.9999 13.7643C18.8913 13.7643 21.2332 15.976 21.2332 18.7067C21.2332 21.4375 18.8913 23.6494 15.9999 23.6494C13.1085 23.6494 10.7667 21.4375 10.7667 18.7067C10.7667 15.976 13.1085 13.7643 15.9999 13.7643Z" fill="currentColor"/>
</g></symbol><symbol id="icon-check" viewBox="0 0 11 12"><g fill="none">
<path d="M3.38679 11.1809L0 7.5V7V6C0 5.95907 0 6.04093 0 6C0 5.78516 6.95735e-05 5.5 6.95735e-05 5.5V4.5L3.37736 7.75615C3.49314 7.87756 3.68161 7.87614 3.79738 7.75474L11.0001 0V2.07271V3C11.0001 3.5 11.0001 3.5 11.0001 3.5L4.80839 10.1208L4.80974 10.1222L3.80681 11.1795C3.69103 11.3009 3.50256 11.3009 3.38679 11.1809Z" fill="#161C35"/>
</g></symbol><symbol id="icon-close" viewBox="0 0 19 20"><g fill="none">
<rect width="23.8906" height="2.0318" rx="1.0159" transform="matrix(0.69604 0.718003 -0.69604 0.718003 1.97168 0.988155)" fill="currentColor"/>
<rect width="23.8906" height="2.0318" rx="1.0159" transform="matrix(0.69604 -0.718003 0.69604 0.718003 -0.399414 17.754)" fill="currentColor"/>
</g></symbol><symbol id="icon-ellipse" viewBox="0 0 73 72"><g fill="none">
<ellipse cx="36.4278" cy="35.8193" rx="36.4278" ry="35.4028" fill="currentColor"/>
</g></symbol><symbol id="icon-filter" viewBox="0 0 23 15"><g fill="none">
<rect x="11" width="12" height="3" fill="#192144"/>
<rect x="11" y="12" width="12" height="3" fill="#192144"/>
<rect y="6" width="12" height="3" fill="#192144"/>
<rect x="6" width="3" height="3" fill="#192144"/>
<rect x="6" y="12" width="3" height="3" fill="#192144"/>
<rect x="14" y="6" width="3" height="3" fill="#192144"/>
<rect width="4" height="3" fill="#192144"/>
<rect y="12" width="4" height="3" fill="#192144"/>
<rect x="19" y="6" width="4" height="3" fill="#192144"/>
</g></symbol><symbol id="icon-heart-fill" viewBox="0 0 20 18"><g fill="none">
<path d="M5 0.25C7.7625 0.25 10 2.44375 10 5.15C10 2.44375 12.2375 0.25 15 0.25C17.7625 0.25 20 2.44375 20 5.15C20 9.22875 15.9575 10.6675 10.49 17.16C10.4298 17.2313 10.3548 17.2886 10.2701 17.3279C10.1855 17.3672 10.0933 17.3876 10 17.3876C9.90668 17.3876 9.81449 17.3672 9.72986 17.3279C9.64523 17.2886 9.57019 17.2313 9.51 17.16C4.0425 10.6675 0 9.22875 0 5.15C0 2.44375 2.2375 0.25 5 0.25Z" fill="currentColor"/>
</g></symbol><symbol id="icon-heart" viewBox="0 0 23 19"><g fill="none">
<path fill-rule="evenodd" clip-rule="evenodd" d="M11.3616 7.12436L12.6293 4.77557C12.9442 4.19396 13.4901 3.35764 14.263 2.68149C15.0231 2.01585 15.9335 1.5629 17.0339 1.5629C19.4106 1.5629 21.2881 3.30381 21.2881 5.39658C21.2881 6.9865 20.5025 8.10903 18.6392 9.82106C18.1613 10.2596 17.6167 10.7335 17.014 11.2561C15.4428 12.6215 13.4887 14.3204 11.3616 16.5917C9.23447 14.3204 7.28036 12.6215 5.70913 11.2561C5.10645 10.7335 4.56049 10.2583 4.08401 9.82106C2.22066 8.10903 1.43504 6.9865 1.43504 5.39658C1.43504 3.30381 3.31258 1.5629 5.68928 1.5629C6.7897 1.5629 7.70011 2.01585 8.4602 2.68149C9.23305 3.35764 9.77901 4.19396 10.0938 4.77557L11.3616 7.12436ZM11.9175 18.0109C11.8492 18.0858 11.7641 18.146 11.668 18.1873C11.572 18.2286 11.4674 18.25 11.3616 18.25C11.2557 18.25 11.1511 18.2286 11.0551 18.1873C10.9591 18.146 10.874 18.0858 10.8057 18.0109C8.53536 15.5138 6.48056 13.7283 4.7888 12.2591C1.86047 9.7134 0.0169678 8.11297 0.0169678 5.39658C0.0169678 2.55414 2.55533 0.25 5.68928 0.25C7.9582 0.25 9.54503 1.62855 10.5164 2.88631C10.8851 3.36552 11.1659 3.82635 11.3616 4.18871C11.6069 3.73519 11.8895 3.29978 12.2068 2.88631C13.1781 1.62723 14.765 0.25 17.0339 0.25C20.1678 0.25 22.7062 2.55414 22.7062 5.39658C22.7062 8.11297 20.8627 9.7134 17.9344 12.2591C16.2426 13.7296 14.1878 15.5151 11.9175 18.0096V18.0109Z" fill="currentColor"/>
</g></symbol><symbol id="icon-line-header" viewBox="0 0 60 2"><g fill="none">
<rect width="60" height="2" fill="white"/>
</g></symbol><symbol id="icon-mail-header" viewBox="0 0 16 14"><g fill="none">
<path d="M1.25901 2.60026L7.25901 6.36066C7.46061 6.48666 7.72141 6.54639 7.98381 6.54639C8.24621 6.54639 8.50701 6.48666 8.70861 6.36066L14.7086 2.60026C15.0998 2.35479 15.4694 1.39999 14.7518 1.39999H1.21661C0.499006 1.39999 0.868606 2.35479 1.25901 2.60026ZM14.8902 4.65639L8.70861 8.41493C8.43661 8.58106 8.24621 8.60066 7.98381 8.60066C7.72141 8.60066 7.53101 8.58106 7.25901 8.41493C6.98701 8.24879 1.55261 4.92519 1.10861 4.65546C0.796606 4.46506 0.799806 4.68813 0.799806 4.85986V11.6667C0.799806 12.0587 1.25261 12.6 1.59981 12.6H14.3998C14.747 12.6 15.1998 12.0587 15.1998 11.6667V4.86079C15.1998 4.68906 15.203 4.46599 14.8902 4.65639Z" fill="#161C35"/>
</g></symbol><symbol id="icon-mail" viewBox="0 0 37 26"><g fill="none">
<path fill-rule="evenodd" clip-rule="evenodd" d="M32.2786 20.9327L23.6177 13L32.2786 5.06731L31.0976 3.80529L18.4999 15.3438L5.90234 3.80529L4.72131 5.06731L13.3822 13L4.72131 20.9327L5.90234 22.1947L14.6616 14.1719L18.4999 17.6875L22.3383 14.1719L31.0976 22.1947L32.2786 20.9327ZM3.15187 0.5C1.53384 0.5 0.222168 1.89768 0.222168 3.61572V22.3843C0.222168 24.105 1.5232 25.5 3.15187 25.5H33.848C35.4661 25.5 36.7777 24.1023 36.7777 22.3843V3.61572C36.7777 1.89496 35.4767 0.5 33.848 0.5H3.15187Z" fill="currentColor"/>
</g></symbol><symbol id="icon-man" viewBox="0 0 29 29"><g fill="none">
<path d="M24.4731 24.0259V20.5393C24.4731 19.5631 24.3296 18.5868 23.7555 17.6105C23.1815 16.6343 22.464 15.7975 21.4595 15.2396C20.455 14.5423 18.3024 14.4028 17.2979 14.4028L15.0018 16.7737L15.8628 18.5868V22.7708L14.4278 24.3049L12.9928 22.7708V18.5868L13.9973 16.7737L11.5577 14.4028C10.4097 14.4028 8.25716 14.5423 7.25264 15.2396C6.24811 15.7975 5.6741 16.6343 5.10009 17.6105C4.52607 18.5868 4.38257 19.4236 4.38257 20.5393V24.0259C4.38257 24.0259 8.11366 25.5601 14.4278 25.5601C20.742 25.5601 24.4731 24.0259 24.4731 24.0259Z" fill="#3F4251"/>
<path d="M14.4278 3.38525C11.7012 3.38525 10.1227 5.89563 10.5532 8.68494C10.9837 11.4742 12.4187 13.4268 14.4278 13.4268C16.4368 13.4268 17.8719 11.4742 18.3024 8.68494C18.7329 5.75617 17.1544 3.38525 14.4278 3.38525Z" fill="#3F4251"/>
</g></symbol><symbol id="icon-map" viewBox="0 0 56 56"><g fill="none">
<circle cx="28" cy="28" r="27" fill="white"/>
<circle cx="28" cy="27" r="12" fill="#182044"/>
</g></symbol><symbol id="icon-pin" viewBox="0 0 32 42"><g fill="none">
<path d="M16 0C7.30337 0 0.25 7.05337 0.25 15.75C0.25 25.8667 7.85691 30.2898 9.53846 32.3077C13.5769 37.1538 13.8051 42 16 42C18.1949 42 18.4231 37.1538 22.4615 32.3077C24.1431 30.2898 31.75 25.8667 31.75 15.75C31.75 7.05337 24.6966 0 16 0ZM16 26.25C10.2014 26.25 5.5 21.5486 5.5 15.75C5.5 9.95137 10.2014 5.25 16 5.25C21.7986 5.25 26.5 9.95137 26.5 15.75C26.5 21.5486 21.7986 26.25 16 26.25ZM16 10.5C13.102 10.5 10.75 12.852 10.75 15.75C10.75 18.648 13.102 21 16 21C18.898 21 21.25 18.648 21.25 15.75C21.25 12.852 18.898 10.5 16 10.5Z" fill="#CCE5FA"/>
</g></symbol><symbol id="icon-plane" viewBox="0 0 24 22"><g fill="none">
<g clip-path="url(#clip0_1369_1040)">
<path d="M18.8325 1.1803C18.028 1.36073 17.2197 1.542 16.919 2.03873L14.592 6.41228L2.09704 9.21442L1.5908 10.6118L11.1522 11.4647L9.52997 15.2509L5.90387 16.0641L4.99347 17.5521L7.60943 17.8201L7.90773 19.0371C8.04137 19.4685 8.51044 19.7565 8.91083 19.6667L10.1195 19.3956L11.5207 21.6492L12.4311 20.1611L11.5362 16.5101L14.1615 13.3536L19.1709 21.6468L20.1811 20.5656L17.0983 7.9887L19.9293 3.93144C20.2337 3.43387 20.0351 2.6238 19.8356 1.80994C19.7368 1.40681 19.2329 1.09051 18.8325 1.1803Z" fill="currentColor"/>
</g>

</g></symbol><symbol id="icon-plus" viewBox="0 0 26 26"><g fill="none">
<rect y="12" width="26" height="2" rx="1" fill="#1D2E5B"/>
<rect x="12" y="26" width="26" height="2" rx="1" transform="rotate(-90 12 26)" fill="#1D2E5B"/>
</g></symbol><symbol id="icon-point" viewBox="0 0 34 6"><g fill="none">
<ellipse cx="3.93515" cy="3" rx="3.34054" ry="3" fill="#192144"/>
<ellipse cx="17.2973" cy="3" rx="3.34054" ry="3" fill="#192144"/>
<ellipse cx="30.6595" cy="3" rx="3.34054" ry="3" fill="#192144"/>
</g></symbol><symbol id="icon-run" viewBox="0 0 23 24"><g fill="none">
<path d="M15.7523 6C16.7564 6 17.5704 5.10457 17.5704 4C17.5704 2.89543 16.7564 2 15.7523 2C14.7481 2 13.9341 2.89543 13.9341 4C13.9341 5.10457 14.7481 6 15.7523 6Z" fill="currentColor"/>
<path d="M14.6408 10.969C14.8495 11.311 15.1489 11.5742 15.4982 11.7227C15.8476 11.8712 16.23 11.8978 16.5936 11.799L19.6081 10.97L19.169 9.02997L16.1545 9.85897L14.9008 7.79197C14.633 7.35053 14.2173 7.04354 13.7445 6.93797L10.2481 6.16797C9.85697 6.08162 9.45087 6.13933 9.09251 6.33217C8.73415 6.52502 8.44349 6.84229 8.26539 7.23497L6.75812 10.551L8.38448 11.446L9.89176 8.12897L11.6799 8.52297L7.0563 17H3.02539V19H7.0563C7.69085 19 8.28812 18.628 8.61539 18.029L10.359 14.833L15.0581 15.867L16.709 21.316L18.4327 20.683L16.7827 15.235C16.6808 14.9005 16.5007 14.6014 16.2603 14.3679C16.02 14.1345 15.7279 13.9748 15.4136 13.905L12.6508 13.298L14.2618 10.344L14.6408 10.969Z" fill="currentColor"/>
</g></symbol><symbol id="icon-tg" viewBox="0 0 28 26"><g fill="none">
<path d="M27.2599 0.686575C26.9724 0.448274 26.6258 0.292212 26.2568 0.234936C25.8878 0.17766 25.5102 0.221304 25.1639 0.361241L1.27462 10.0052C0.888576 10.1639 0.559915 10.4362 0.332263 10.786C0.104611 11.1358 -0.0112639 11.5466 1.99004e-05 11.9638C0.0113037 12.381 0.149213 12.7849 0.39544 13.1219C0.641667 13.4589 0.984565 13.713 1.37861 13.8506L6.53328 15.6399L9.32661 24.8746C9.33195 24.8932 9.34928 24.9052 9.35728 24.9226C9.38606 24.9963 9.42809 25.064 9.48128 25.1226C9.5621 25.2128 9.66643 25.2789 9.78261 25.3132C9.79595 25.3186 9.80528 25.3306 9.81862 25.3332H9.82661L9.83061 25.3346C9.93377 25.3568 10.041 25.3513 10.1413 25.3186C10.1519 25.3159 10.1626 25.3159 10.1746 25.3119C10.2709 25.2781 10.3581 25.2224 10.4293 25.1492C10.4373 25.1399 10.4506 25.1386 10.4586 25.1306L14.4759 20.6959L20.3386 25.2359C20.6946 25.5146 21.1333 25.6652 21.5853 25.6652C22.5639 25.6652 23.4079 24.9799 23.6093 24.0239L27.9586 2.66657C28.0324 2.30401 28.0064 1.92821 27.8833 1.57927C27.7603 1.23034 27.5448 0.921339 27.2599 0.685241V0.686575ZM10.7839 17.3932L9.84128 21.9759L7.87461 15.4719L17.6279 10.3919L10.9653 17.0559C10.873 17.1481 10.8099 17.2654 10.7839 17.3932V17.3932ZM22.3026 23.7559C22.2776 23.8768 22.2219 23.9893 22.1409 24.0824C22.0598 24.1756 21.9562 24.2463 21.8399 24.2879C21.7265 24.3316 21.6037 24.3449 21.4835 24.3267C21.3633 24.3085 21.25 24.2593 21.1546 24.1839L14.8039 19.2652C14.6712 19.1628 14.5047 19.1141 14.3376 19.1289C14.1706 19.1437 14.0152 19.221 13.9026 19.3452L11.1066 22.4266L12.0479 17.8572L21.6333 8.27057C21.7455 8.15795 21.8138 8.00892 21.8259 7.85036C21.8379 7.6918 21.7928 7.53417 21.6989 7.40591C21.6049 7.27765 21.4681 7.1872 21.3133 7.15089C21.1585 7.11458 20.9958 7.13481 20.8546 7.20791L7.03728 14.4052L1.81462 12.5892C1.67614 12.5435 1.55537 12.4558 1.4691 12.3382C1.38283 12.2206 1.33535 12.0791 1.33328 11.9332C1.32664 11.7861 1.36594 11.6406 1.44574 11.5168C1.52554 11.3931 1.64188 11.2972 1.77862 11.2426L25.6639 1.59857C25.7863 1.54657 25.9208 1.52975 26.0523 1.55001C26.1837 1.57027 26.3069 1.6268 26.4079 1.71324C26.5084 1.79456 26.5843 1.90221 26.6272 2.02417C26.6701 2.14613 26.6782 2.27761 26.6506 2.40391L22.3026 23.7572V23.7559Z" fill="black"/>
</g></symbol><symbol id="icon-user" viewBox="0 0 28 24"><g fill="none">
<path opacity="0.1" d="M9.03134 6.7388C9.03134 9.35037 11.3266 11.4756 14.1471 11.4756C16.9677 11.4756 19.263 9.35037 19.263 6.7388C19.263 4.12722 16.9677 2.00195 14.1471 2.00195C11.3266 2.00195 9.03134 4.12722 9.03134 6.7388ZM23.2419 22.002H24.3788V20.9493C24.3788 16.8872 20.8079 13.5809 16.4208 13.5809H11.8735C7.48523 13.5809 3.91553 16.8872 3.91553 20.9493V22.002H23.2419Z" fill="#192144"/>
</g></symbol><symbol id="icon-vk" viewBox="0 0 30 16"><g fill="none">
<path d="M23.9461 15.7775C23.2083 15.761 22.4891 15.5431 21.8661 15.1475C21.2157 14.7079 20.6184 14.1945 20.0861 13.6175C19.6461 13.1775 18.9161 12.4375 18.6361 12.4375C18.3561 12.4375 18.1561 13.3575 18.1661 14.0075C18.1703 14.4562 18.0021 14.8894 17.6961 15.2175C17.3481 15.5018 16.9234 15.6758 16.4761 15.7175H14.5561C11.7965 15.6568 9.15414 14.59 7.12606 12.7175C3.44606 9.34753 0.286063 2.90753 0.156063 2.62753C0.0320633 2.39361 -0.0198655 2.12821 0.00683068 1.86481C0.0335268 1.6014 0.137651 1.35181 0.306063 1.14753C0.687199 0.829675 1.16985 0.659328 1.66606 0.667532H5.74606H5.86606C6.20364 0.716784 6.52722 0.835995 6.81606 1.01753C7.08788 1.1998 7.30552 1.45198 7.44606 1.74753C7.87724 2.6706 8.37175 3.56273 8.92606 4.41753C10.2361 6.41753 10.8161 6.87753 11.0261 6.97753C11.2597 6.03979 11.324 5.06788 11.2161 4.10753C11.2511 3.67014 11.179 3.2308 11.0061 2.82753C10.7865 2.65191 10.5169 2.55038 10.2361 2.53753L9.50606 1.84753C9.36606 1.18753 10.0961 0.617532 10.6061 0.397532C11.6238 0.0786297 12.6916 -0.0501836 13.7561 0.017532H14.4661C15.1881 -0.00127074 15.9099 0.0658674 16.6161 0.217532C18.3161 0.577532 18.2561 1.94753 18.1861 3.52753C18.1861 3.98753 18.1361 4.52753 18.1361 5.14753C18.1361 5.29753 18.1361 5.45753 18.1361 5.62753C18.0967 6.06289 18.1271 6.50174 18.2261 6.92753C19.0586 6.23108 19.7597 5.39116 20.2961 4.44753C20.875 3.55527 21.3832 2.61908 21.8161 1.64753C21.9479 1.34025 22.1739 1.08272 22.4614 0.912012C22.7489 0.741299 23.0832 0.666204 23.4161 0.697532H27.6961C27.8224 0.685471 27.9497 0.685471 28.0761 0.697532C29.0761 0.697532 29.6661 0.987532 29.9061 1.54753C30.1461 2.10753 30.0761 3.20753 27.5461 6.15753L26.5461 7.28753C26.0616 7.75797 25.6443 8.29301 25.3061 8.87753C25.6848 9.30811 26.1147 9.69093 26.5861 10.0175C27.7353 10.8835 28.7468 11.9186 29.5861 13.0875C29.7829 13.3148 29.9117 13.593 29.9576 13.8901C30.0036 14.1873 29.965 14.4914 29.8461 14.7675C29.6365 15.0734 29.3561 15.3241 29.0288 15.4982C28.7014 15.6723 28.3368 15.7647 27.9661 15.7675L24.1761 15.8175L23.9461 15.7775ZM18.6361 10.9375C19.5361 10.9375 20.3161 11.7275 21.1461 12.5575C21.5944 13.0471 22.0977 13.4833 22.6461 13.8575C23.0607 14.1333 23.5481 14.2795 24.0461 14.2775H24.1461L27.9461 14.2275C28.1335 14.2168 28.317 14.1692 28.4861 14.0875L28.3861 13.9275C27.6291 12.8959 26.7263 11.9797 25.7061 11.2075C24.5161 10.2075 23.9061 9.73753 23.8361 8.96753C23.7661 8.19753 24.3261 7.52753 25.4461 6.25753L26.4461 5.14753C27.2903 4.28639 27.9834 3.28908 28.4961 2.19753C28.2729 2.1843 28.0492 2.1843 27.8261 2.19753H23.4561C23.377 2.17986 23.2951 2.17986 23.2161 2.19753C22.7532 3.25898 22.2012 4.27929 21.5661 5.24753C19.6761 8.06753 18.7861 8.44753 18.1561 8.44753C17.9607 8.44753 17.7684 8.39945 17.5961 8.30753C16.5961 7.73753 16.5961 6.46753 16.6561 5.54753C16.6561 5.39753 16.6561 5.24753 16.6561 5.11753C16.6561 4.46753 16.6561 3.90753 16.7061 3.42753C16.7861 1.74753 16.7061 1.73753 16.3261 1.64753C15.7138 1.52655 15.09 1.4729 14.4661 1.48753H13.7761C13.1411 1.47441 12.5061 1.50784 11.8761 1.58753C11.9715 1.65784 12.0558 1.74212 12.1261 1.83753C12.5385 2.48787 12.7442 3.24794 12.7161 4.01753C12.8461 5.66753 12.7761 7.81753 11.7161 8.33753C11.5284 8.42537 11.3233 8.4698 11.1161 8.46753C10.1861 8.46753 9.26606 7.58753 7.69606 5.20753C7.09358 4.29624 6.5556 3.34392 6.08606 2.35753L6.00606 2.25753C5.90508 2.20606 5.79736 2.16903 5.68606 2.14753H1.68606H1.61606C2.20606 3.36753 5.00606 8.76753 8.13606 11.5975C9.89364 13.2122 12.1708 14.1451 14.5561 14.2275H16.4061C16.5004 14.2074 16.5914 14.1737 16.6761 14.1275C16.6761 14.1275 16.6761 14.1275 16.6761 14.0375C16.6761 13.7675 16.6761 11.4375 18.2561 11.0375C18.3784 10.9894 18.5059 10.9558 18.6361 10.9375Z" fill="#192144"/>
</g></symbol><symbol id="icon-youtube" viewBox="0 0 28 22"><g fill="none">
<path d="M18.275 10.5873L12.275 6.58733C12.1998 6.53724 12.1124 6.50847 12.0222 6.50407C11.932 6.49967 11.8422 6.5198 11.7625 6.56233C11.6826 6.60389 11.6158 6.66677 11.5694 6.74399C11.5231 6.82122 11.4991 6.90977 11.5 6.99983V14.9998C11.4991 15.0899 11.5231 15.1784 11.5694 15.2557C11.6158 15.3329 11.6826 15.3958 11.7625 15.4373C11.8361 15.4754 11.9172 15.4967 12 15.4998C12.0988 15.5016 12.1954 15.4709 12.275 15.4123L18.275 11.4123C18.3447 11.3684 18.4022 11.3075 18.442 11.2354C18.4818 11.1633 18.5027 11.0822 18.5027 10.9998C18.5027 10.9174 18.4818 10.8364 18.442 10.7642C18.4022 10.6921 18.3447 10.6312 18.275 10.5873V10.5873ZM12.5 14.0623V7.93733L17.1 10.9998L12.5 14.0623ZM26.8125 3.84983C26.7092 3.46871 26.5189 3.11677 26.2564 2.82177C25.9939 2.52676 25.6665 2.29674 25.3 2.14983C21.075 0.524827 14.2875 0.549827 14 0.549827C13.7125 0.549827 6.925 0.524827 2.7 2.14983C2.33348 2.29674 2.00609 2.52676 1.74362 2.82177C1.48115 3.11677 1.29078 3.46871 1.1875 3.84983C0.875 5.06233 0.5 7.28733 0.5 10.9998C0.5 14.7123 0.875 16.9373 1.1875 18.1498C1.29078 18.5309 1.48115 18.8829 1.74362 19.1779C2.00609 19.4729 2.33348 19.7029 2.7 19.8498C6.925 21.4748 13.7125 21.4498 14 21.4498H14.0875C14.95 21.4498 21.2875 21.3998 25.3 19.8498C25.6665 19.7029 25.9939 19.4729 26.2564 19.1779C26.5189 18.8829 26.7092 18.5309 26.8125 18.1498C27.125 16.9373 27.5 14.7123 27.5 10.9998C27.5 7.28733 27.125 5.06233 26.8125 3.84983V3.84983ZM25.8375 17.8998C25.7774 18.1274 25.6647 18.3376 25.5083 18.5135C25.352 18.6894 25.1564 18.826 24.9375 18.9123C20.8875 20.4748 14.075 20.4498 14 20.4498C13.925 20.4498 7.1125 20.4748 3.0625 18.9123C2.84358 18.826 2.64804 18.6894 2.49169 18.5135C2.33534 18.3376 2.22257 18.1274 2.1625 17.8998C1.8625 16.7373 1.5 14.5998 1.5 10.9998C1.5 7.39983 1.8625 5.26233 2.1625 4.09983C2.22257 3.87229 2.33534 3.66208 2.49169 3.48619C2.64804 3.3103 2.84358 3.17366 3.0625 3.08733C7.1125 1.52483 13.925 1.54983 14 1.54983C14.075 1.54983 20.8875 1.52483 24.9375 3.08733C25.1564 3.17366 25.352 3.3103 25.5083 3.48619C25.6647 3.66208 25.7774 3.87229 25.8375 4.09983C26.1375 5.26233 26.5 7.39983 26.5 10.9998C26.5 14.5998 26.1375 16.7373 25.8375 17.8998Z" fill="black"/>
</g></symbol><symbol id="logo-mobile" viewBox="0 0 96 15"><g fill="none">
<path d="M94.9113 6.18874C95.6371 5.72747 96 5.01634 96 4.05535C96 2.79967 95.4774 1.81306 94.4322 1.09552C93.4161 0.365174 92.2185 0 90.8394 0C89.4894 0 88.2555 0.397207 87.1378 1.19162C86.0345 1.97322 85.4829 3.01749 85.4829 4.32443C85.4829 4.81133 85.6353 5.21494 85.9402 5.53527C86.245 5.84278 86.6805 5.99654 87.2467 5.99654C87.7983 5.99654 88.2193 5.84278 88.5096 5.53527C88.8144 5.21494 88.9668 4.81133 88.9668 4.32443C88.9378 3.95285 89.0612 3.57486 89.337 3.19047C89.6128 2.79326 90.1136 2.59466 90.8394 2.59466C91.4491 2.60747 91.8846 2.76123 92.1459 3.05593C92.4217 3.35063 92.5451 3.64533 92.5161 3.94003C92.5161 4.14504 92.4435 4.35005 92.2983 4.55506C92.1532 4.76007 92.0008 4.92024 91.8411 5.03556C91.6959 5.15088 91.4564 5.31745 91.1225 5.53527C90.7886 5.75309 90.5564 5.90685 90.4257 5.99654C89.6709 6.54751 89.2935 7.27785 89.2935 8.18758C89.2935 8.63604 89.4531 9.01403 89.7725 9.32155C90.1064 9.61625 90.5491 9.7636 91.1007 9.7636C91.6524 9.7636 92.0878 9.61625 92.4072 9.32155C92.7411 9.01403 92.908 8.63604 92.908 8.18758C92.908 7.99539 92.9443 7.816 93.0169 7.64943C93.0895 7.48286 93.2056 7.32911 93.3653 7.18816C93.5395 7.04722 93.6846 6.9319 93.8008 6.84221C93.9314 6.75252 94.1201 6.6372 94.3669 6.49625C94.6282 6.35531 94.8097 6.2528 94.9113 6.18874Z" fill="currentColor"/>
<path d="M76.3053 10.2354L80.1618 5.46351C80.5573 4.88748 81.0941 4.56674 81.7722 4.50128C82.4502 4.42273 83.0435 4.58638 83.5521 4.99221C84.0606 5.39805 84.3008 5.94135 84.2725 6.62211V13.4559C84.2725 13.8879 84.103 14.2545 83.764 14.5556C83.4391 14.8436 83.0435 14.9876 82.5774 14.9876C82.1112 14.9876 81.7086 14.8436 81.3696 14.5556C81.0447 14.2545 80.8822 13.8879 80.8822 13.4559V9.21424L77.0257 13.9861C76.6302 14.5622 76.0934 14.8829 75.4153 14.9484C74.7373 15.0269 74.144 14.8633 73.6354 14.4574C73.1269 14.0516 72.8867 13.5083 72.915 12.8275V6.01336C72.915 5.58133 73.0774 5.21477 73.4023 4.91367C73.7413 4.61256 74.144 4.46201 74.6101 4.46201C75.0763 4.46201 75.4718 4.61256 75.7967 4.91367C76.1358 5.21477 76.3053 5.58133 76.3053 6.01336V10.2354Z" fill="currentColor"/>
<path fill-rule="evenodd" clip-rule="evenodd" d="M58.967 13.3889V5.97502C58.967 5.54871 58.7887 5.18234 58.4323 4.87593C58.0901 4.5562 57.6837 4.39633 57.2132 4.39633C56.7569 4.39633 56.3576 4.5562 56.0154 4.87593C55.6732 5.18234 55.5021 5.54871 55.5021 5.97502V5.79517C55.331 5.3955 54.9888 5.05578 54.4755 4.77601C53.9622 4.48292 53.3776 4.33638 52.7217 4.33638C51.4384 4.33638 50.2549 4.80932 49.1712 5.7552C48.1161 6.70109 47.5885 8.00001 47.5885 9.65198C47.5885 11.3439 48.109 12.6562 49.1498 13.5887C50.1907 14.5213 51.3813 14.9876 52.7217 14.9876C53.3776 14.9876 53.955 14.8677 54.4541 14.6279C54.9531 14.3747 55.3167 14.075 55.5449 13.7286C55.6304 14.0883 55.8301 14.3881 56.1438 14.6279C56.4574 14.8543 56.8139 14.9676 57.2132 14.9676C57.6837 14.9676 58.0901 14.8144 58.4323 14.508C58.7887 14.2015 58.967 13.8285 58.967 13.3889ZM53.4968 12.0265C54.6657 12.0265 55.6133 11.0009 55.6133 9.73559C55.6133 8.47034 54.6657 7.44464 53.4968 7.44464C52.328 7.44464 51.3804 8.47034 51.3804 9.73559C51.3804 11.0009 52.328 12.0265 53.4968 12.0265Z" fill="currentColor"/>
<path d="M43.0813 8.23733V6.09447C43.0813 5.65909 43.2578 5.28968 43.6109 4.98624C43.9639 4.6696 44.3758 4.51128 44.8466 4.51128C45.3173 4.51128 45.7292 4.6696 46.0822 4.98624C46.4353 5.28968 46.6118 5.65909 46.6118 6.09447V13.4365C46.6118 13.8719 46.4353 14.2413 46.0822 14.5448C45.7439 14.8482 45.332 14.9999 44.8466 14.9999C44.3611 14.9999 43.9419 14.8482 43.5888 14.5448C43.2505 14.2413 43.0813 13.8719 43.0813 13.4365V11.262H39.264V13.4365C39.264 13.8719 39.0875 14.2413 38.7344 14.5448C38.3961 14.8482 37.9842 14.9999 37.4988 14.9999C37.0133 14.9999 36.5941 14.8482 36.241 14.5448C35.9027 14.2413 35.7335 13.8719 35.7335 13.4365V6.09447C35.7335 5.65909 35.9101 5.28968 36.2631 4.98624C36.6161 4.6696 37.028 4.51128 37.4988 4.51128C37.9695 4.51128 38.3814 4.6696 38.7344 4.98624C39.0875 5.28968 39.264 5.65909 39.264 6.09447V8.23733H43.0813Z" fill="currentColor"/>
<path d="M33.9622 4.51128C34.308 4.51128 34.6045 4.64246 34.8515 4.90482C35.0985 5.16718 35.222 5.7719 35.222 6.1392C35.222 6.50651 35.0985 6.8863 34.8515 7.14866C34.6045 7.41102 34.308 7.5033 33.9622 7.5033H31.0038V13.4743C31.0038 14.6043 30.0103 15 29.014 15C28.0896 15 27.207 14.4993 27.207 13.4849L27.2376 4.51128C27.2376 4.51128 32.3922 4.51128 33.9622 4.51128Z" fill="currentColor"/>
<path d="M12.8551 0V13.3315C12.8551 13.7712 12.6164 14.1441 12.2855 14.4505C11.9684 14.757 11.4699 14.9102 11.0149 14.9102C10.5599 14.9102 9.9021 14.757 9.57117 14.4505C9.25404 14.1441 9.09547 13.7711 9.09547 13.3315V3.00913H3.77227V13.3315C3.77227 13.7711 3.60681 14.1441 3.27589 14.4505C2.95875 14.757 2.31306 14.9102 1.85804 14.9102C1.40303 14.9102 0.806623 14.757 0.475701 14.4505C0.158567 14.1441 0 13.7711 0 13.3315V0C4.26062 0 12.8551 0 12.8551 0Z" fill="currentColor"/>
<path d="M24.6375 13.365C23.5609 14.3757 22.1202 14.8811 20.3154 14.8811C18.5106 14.8811 17.0778 14.3757 16.0171 13.365C14.9247 12.3391 14.3785 11.0569 14.3785 9.51811C14.3785 7.96428 14.9247 6.68199 16.0171 5.67125C17.0778 4.6605 18.5106 4.15513 20.3154 4.15513C22.1202 4.15513 23.5609 4.6605 24.6375 5.67125C25.714 6.69708 26.2523 7.97937 26.2523 9.51811C26.2523 11.0569 25.714 12.3391 24.6375 13.365ZM21.8353 7.93411C21.5345 7.61731 21.1624 7.42874 20.7191 7.36839C20.2917 7.29296 19.88 7.33068 19.4843 7.48154C19.1043 7.63239 18.7797 7.88885 18.5106 8.25091C18.2573 8.61297 18.1465 9.03537 18.1781 9.51811C18.1781 10.1517 18.376 10.6797 18.7718 11.1021C19.1835 11.5094 19.698 11.7131 20.3154 11.7131C20.9487 11.7131 21.4632 11.517 21.859 11.1247C22.2548 10.7174 22.4527 10.1819 22.4527 9.51811C22.4527 8.88451 22.2469 8.35651 21.8353 7.93411Z" fill="currentColor"/>
<path d="M64.0219 4.46201C66.0459 4.46201 71.4392 4.49207 71.4392 4.49207C71.4392 4.49207 71.4433 11.0831 71.4433 13.3863C71.4433 13.8287 71.2612 14.2101 70.8972 14.5305C70.5497 14.8356 70.2353 14.9882 69.7058 14.9882C69.1763 14.9882 68.9064 15.0283 68.5424 14.7232C68.1949 14.4028 67.8752 13.8287 67.8752 13.3863V7.43679H65.4188C65.4188 11.7016 65.4189 12.6387 63.8482 14.1644C63.269 14.7136 62.5244 14.9882 61.6143 14.9882C61.0683 14.9882 60.7474 14.8573 60.4 14.5522C60.0525 14.2318 59.7828 13.7205 59.7828 13.2476C59.7828 12.2296 59.9964 11.8245 60.5424 11.1604C62.1091 11.1604 62.0413 10.7809 61.943 7.89444V6.06381C61.9596 5.62141 62.0413 4.46201 62.0413 4.46201C62.0413 4.46201 63.542 4.46201 64.0219 4.46201Z" fill="currentColor"/>
<path d="M93.1598 12.7451C93.1598 13.9835 92.1101 14.9875 90.8153 14.9875C89.5204 14.9875 88.4707 13.9835 88.4707 12.7451C88.4707 11.5066 89.5204 10.5027 90.8153 10.5027C92.1101 10.5027 93.1598 11.5066 93.1598 12.7451Z" fill="currentColor"/>
</g></symbol></svg>